<?xml version="1.0" encoding="UTF-8"?>
<svg width="512" height="512" viewBox="0 0 512 512" fill="none" xmlns="http://www.w3.org/2000/svg">
  <!-- Gradient Background -->
  <defs>
    <linearGradient id="grad" x1="0%" y1="0%" x2="100%" y2="100%">
      <stop offset="0%" style="stop-color:#3B82F6;stop-opacity:1" />
      <stop offset="100%" style="stop-color:#8B5CF6;stop-opacity:1" />
    </linearGradient>
    <filter id="glow" x="-20%" y="-20%" width="140%" height="140%">
      <feGaussianBlur stdDeviation="4" result="blur" />
      <feComposite in="SourceGraphic" in2="blur" operator="over" />
    </filter>
  </defs>
  
  <!-- Modern Rounded Square Background -->
  <rect x="56" y="56" width="400" height="400" rx="100" fill="url(#grad)"/>
  
  <!-- Document -->
  <path d="M176 146h160v220h-160z" fill="white" opacity="0.9"/>
  <path d="M196 186h120m-120 40h120m-120 40h80" stroke="#8B5CF6" stroke-width="16" stroke-linecap="round"/>
  
  <!-- Magic Wand -->
  <g transform="translate(256,256) rotate(-45) translate(-256,-256)" filter="url(#glow)">
    <rect x="286" y="146" width="20" height="140" rx="10" fill="#FFD700"/>
    <path d="M296 126l10 10-10 10-10-10z" fill="#FFD700"/>
    <!-- Sparkles -->
    <circle cx="326" cy="156" r="4" fill="white"/>
    <circle cx="346" cy="176" r="3" fill="white"/>
    <circle cx="316" cy="186" r="3" fill="white"/>
  </g>
  
  <!-- Speed Lines -->
  <path d="M356 316l40 40M366 286l50 30M376 256l60 20" 
        stroke="white" stroke-width="8" stroke-linecap="round" opacity="0.6">
    <animate attributeName="opacity" values="0.6;0.2;0.6" dur="2s" repeatCount="indefinite"/>
  </path>
</svg>